<svg width="20" height="20" xmlns="http://www.w3.org/2000/svg">

 <g>
  <title>background</title>
  <rect fill="none" id="canvas_background" height="22" width="22" y="-1" x="-1"/>
 </g>
 <g>
  <title>Layer 1</title>
  <path stroke="#cfcfcf" id="svg_1" fill="#cfcfcf" d="m18.78,17.7197l-5.1187,-5.1187c0.9916,-1.2247 1.5885,-2.781 1.5885,-4.47597c0,-3.92846 -3.1964,-7.12494 -7.1249,-7.12494c-3.92846,0 -7.1249,3.19645 -7.1249,7.12491c0,3.9285 3.19648,7.1249 7.12493,7.1249c1.69497,0 3.25117,-0.5969 4.47597,-1.5884l5.1187,5.1187c0.1462,0.1462 0.3382,0.2197 0.5302,0.2197c0.192,0 0.384,-0.0735 0.5303,-0.2197c0.2932,-0.2933 0.2932,-0.7673 -0.0001,-1.0605zm-10.65507,-3.9698c-3.10197,0 -5.62493,-2.5229 -5.62493,-5.6249c0,-3.10198 2.52296,-5.62495 5.62493,-5.62495c3.10197,0 5.62497,2.52297 5.62497,5.62495c0,3.102 -2.523,5.6249 -5.62497,5.6249z"/>
 </g>
</svg>